<?xml version="1.0" standalone="no"?>
<!DOCTYPE svg PUBLIC "-//W3C//DTD SVG 1.1//EN" "http://www.w3.org/Graphics/SVG/1.1/DTD/svg11.dtd" >
<!--
2013-9-30: Created.
-->
<svg>
<metadata>
Created by iconfont
</metadata>
<defs>

<font id="iconfont" horiz-adv-x="1024" >
  <font-face
    font-family="iconfont"
    font-weight="500"
    font-stretch="normal"
    units-per-em="1024"
    ascent="896"
    descent="-128"
  />
    <missing-glyph />
    
    <glyph glyph-name="jinggao" unicode="&#58903;" d="M884.4-11.5H139.6c-26.4 0-50 13.6-63.2 36.5-13.2 22.9-13.2 50.1 0 73l372.4 645c13.2 22.9 36.8 36.5 63.2 36.5 26.4 0 50-13.6 63.2-36.5l372.4-645c13.2-22.9 13.2-50.1 0-73s-36.8-36.5-63.2-36.5zM124.9 70c-4.4-7.7-1.5-14.4 0-17s5.9-8.5 14.7-8.5h744.8c8.9 0 13.2 5.9 14.7 8.5s4.4 9.3 0 17L526.7 715c-4.4 7.7-11.8 8.5-14.7 8.5s-10.3-0.8-14.7-8.5L124.9 70zM484 554h56v-340h-56zM484 164.1h56v-56h-56z"  horiz-adv-x="1024" />

    
    <glyph glyph-name="dianjiyi" unicode="&#58882;" d="M123.301647 678.912h89.118118v-617.411765H123.301647zM946.537412-3.734588c0-15.239529-12.348235-27.587765-27.587765-27.587765H321.566118a27.587765 27.587765 0 0 0 0 55.175529h597.353411c15.269647 0 27.617882-12.348235 27.617883-27.587764zM1011.772235 598.618353h58.699294v-409.148235h-58.699294zM989.184 415.382588h303.706353v-67.794823H989.184zM602.684235 522.059294h153.088l-153.088-170.706823h122.970353L575.036235 173.176471l22.588236 112.941176-105.381647 15.058824zM869.647059 48.941176h-527.058824c-66.439529 0-120.470588 52.073412-120.470588 116.073412v412.912941c0 64 54.031059 116.073412 120.470588 116.073412h527.058824c66.469647 0 120.470588-52.073412 120.470588-116.073412v-412.912941c0-64-54.000941-116.073412-120.470588-116.073412z m-527.058824 584.794353c-33.219765 0-60.235294-25.057882-60.235294-55.838117v-412.912941c0-30.750118 27.015529-55.838118 60.235294-55.838118h527.058824c33.249882 0 60.235294 25.057882 60.235294 55.838118v412.912941c0 30.780235-26.985412 55.838118-60.235294 55.838117h-527.058824z"  horiz-adv-x="1385" />

    
    <glyph glyph-name="yonghu" unicode="&#59168;" d="M657.066667 337.066667c-34.133333-25.6-76.8-38.4-123.733334-38.4s-85.333333 12.8-123.733333 38.4c0-4.266667-4.266667-4.266667-8.533333-4.266667C315.733333 281.6 256 187.733333 256 85.333333c0-12.8-8.533333-21.333333-21.333333-21.333333S213.333333 72.533333 213.333333 85.333333c0 119.466667 64 226.133333 166.4 281.6-38.4 38.4-59.733333 89.6-59.733333 145.066667 0 119.466667 93.866667 213.333333 213.333333 213.333333s213.333333-93.866667 213.333334-213.333333c0-55.466667-21.333333-106.666667-59.733334-145.066667 102.4-55.466667 166.4-162.133333 166.4-281.6 0-12.8-8.533333-21.333333-21.333333-21.333333s-21.333333 8.533333-21.333333 21.333333c0 102.4-59.733333 196.266667-149.333334 247.466667 0 0-4.266667 0-4.266666 4.266667z m-123.733334 4.266666c93.866667 0 170.666667 76.8 170.666667 170.666667s-76.8 170.666667-170.666667 170.666667-170.666667-76.8-170.666666-170.666667 76.8-170.666667 170.666666-170.666667z"  horiz-adv-x="1024" />

    
    <glyph glyph-name="taizhangguanli" unicode="&#58996;" d="M648.533333 782.222222v28.444445c0 17.066667 11.377778 28.444444 28.444445 28.444444s28.444444-11.377778 28.444444-28.444444V782.222222H796.444444c62.577778 0 113.777778-51.2 113.777778-113.777778v-682.666666c0-62.577778-51.2-113.777778-113.777778-113.777778H227.555556c-62.577778 0-113.777778 51.2-113.777778 113.777778V668.444444c0 62.577778 51.2 113.777778 113.777778 113.777778h79.644444v28.444445c0 17.066667 11.377778 28.444444 28.444444 28.444444s28.444444-11.377778 28.444445-28.444444V782.222222h113.777778v28.444445c0 17.066667 11.377778 28.444444 28.444444 28.444444s28.444444-11.377778 28.444445-28.444444V782.222222h113.777777zM227.555556 725.333333c-34.133333 0-56.888889-22.755556-56.888889-56.888889v-682.666666c0-34.133333 22.755556-56.888889 56.888889-56.888889h568.888888c34.133333 0 56.888889 22.755556 56.888889 56.888889V668.444444c0 34.133333-22.755556 56.888889-56.888889 56.888889H227.555556z m85.333333-113.777777c17.066667 0 28.444444-11.377778 28.444444-28.444445s-11.377778-28.444444-28.444444-28.444444-28.444444 11.377778-28.444445 28.444444 11.377778 28.444444 28.444445 28.444445z m0-170.666667c17.066667 0 28.444444-11.377778 28.444444-28.444445s-11.377778-28.444444-28.444444-28.444444-28.444444 11.377778-28.444445 28.444444 11.377778 28.444444 28.444445 28.444445z m0-170.666667c17.066667 0 28.444444-11.377778 28.444444-28.444444s-11.377778-28.444444-28.444444-28.444445-28.444444 11.377778-28.444445 28.444445 11.377778 28.444444 28.444445 28.444444z m0-170.666666c17.066667 0 28.444444-11.377778 28.444444-28.444445s-11.377778-28.444444-28.444444-28.444444-28.444444 11.377778-28.444445 28.444444 11.377778 28.444444 28.444445 28.444445z m113.777778 512h284.444444c17.066667 0 28.444444-11.377778 28.444445-28.444445s-11.377778-28.444444-28.444445-28.444444h-284.444444c-17.066667 0-28.444444 11.377778-28.444445 28.444444s11.377778 28.444444 28.444445 28.444445z m0-170.666667h284.444444c17.066667 0 28.444444-11.377778 28.444445-28.444445s-11.377778-28.444444-28.444445-28.444444h-284.444444c-17.066667 0-28.444444 11.377778-28.444445 28.444444s11.377778 28.444444 28.444445 28.444445z m0-170.666667h284.444444c17.066667 0 28.444444-11.377778 28.444445-28.444444s-11.377778-28.444444-28.444445-28.444445h-284.444444c-17.066667 0-28.444444 11.377778-28.444445 28.444445s11.377778 28.444444 28.444445 28.444444z m0-170.666666h284.444444c17.066667 0 28.444444-11.377778 28.444445-28.444445s-11.377778-28.444444-28.444445-28.444444h-284.444444c-17.066667 0-28.444444 11.377778-28.444445 28.444444s11.377778 28.444444 28.444445 28.444445z"  horiz-adv-x="1024" />

    
    <glyph glyph-name="yunyingguanli" unicode="&#60369;" d="M892.224 778.976c-83.936 83.936-231.648 81.12-387.616 3.84-155.936 77.28-303.68 80.096-387.616-3.84-69.76-69.76-79.488-183.552-36.64-309.344a95.776 95.776 0 0 1 12.992-122.528c-55.936-136.896-53.472-266.176 23.68-343.328 83.936-83.936 231.712-81.152 387.776-3.776 152.8-75.68 302.016-81.632 387.424 3.776 85.44 85.44 79.424 234.72 3.68 387.584 75.744 152.896 81.76 302.176-3.68 387.616z m-45.248-729.952c-96.416-96.416-332.64-29.408-523.36 161.344a31.968 31.968 0 1 1-45.248-45.248 913.056 913.056 0 0 1 157.376-126.304c-117.248-47.904-219.104-44.128-273.472 10.24-55.776 55.776-56.544 158.368-10.656 271.808 2.816-0.256 5.504-0.864 8.384-0.864a96 96 0 0 1 96 96c0 21.024-6.944 40.288-18.4 56.096a870.592 870.592 0 0 0 86.016 100.288 31.968 31.968 0 1 1-45.248 45.248 933.6 933.6 0 0 1-93.472-109.344A92.928 92.928 0 0 1 160 512a95.68 95.68 0 0 1-24.736-3.616c-28.704 96.448-19.776 178.56 27.008 225.344 62.368 62.368 187.264 58.176 326.112-14.24a31.008 31.008 0 0 1 16.544-3.04 31.104 31.104 0 0 1 16.032 3.104c138.816 72.352 263.648 76.544 326.016 14.176 56-56 56.544-159.2 10.048-273.216a879.36 879.36 0 0 1-67.584 92.48c6.528 11.584 10.56 24.768 10.56 39.008a80 80 0 1 1-80-80c6.368 0 12.48 0.928 18.4 2.336a795.968 795.968 0 0 0 85.408-122.944c-31.52-56.672-73.984-114.08-126.176-168.352-3.2 0.384-6.336 0.96-9.632 0.96a80 80 0 1 1 65.792-34.624 901.056 901.056 0 0 1 103.232 132.864c46.464-113.984 45.952-217.216-10.048-273.216zM512 512a128 128 0 1 1 0-256 128 128 0 0 1 0 256z m0-192a64 64 0 1 0 0.032 128.032A64 64 0 0 0 512 320z"  horiz-adv-x="1024" />

    
    <glyph glyph-name="zuzhiqunzu" unicode="&#60376;" d="M960 192h-63.616v167.392a32 32 0 0 1-32 32H544V480h160a32 32 0 0 1 32 32V800a32 32 0 0 1-32 32H320a32 32 0 0 1-32-32v-288a32 32 0 0 1 32-32h160v-88.608H161.984a32 32 0 0 1-32-31.968L129.792 192H64a32 32 0 0 1-32-32v-192a32 32 0 0 1 32-32h192a32 32 0 0 1 32 32v192a32 32 0 0 1-32 32H193.792l0.16 135.392H480V192h-64a32 32 0 0 1-32-32v-192a32 32 0 0 1 32-32h192a32 32 0 0 1 32 32v192a32 32 0 0 1-32 32h-64v135.392h288.384V192H768a32 32 0 0 1-32-32v-192a32 32 0 0 1 32-32h192a32 32 0 0 1 32 32v192a32 32 0 0 1-32 32zM352 768h320v-224H352V768zM224 0H96v128h128v-128z m352 0h-128v128h128v-128z m352 0h-128v128h128v-128z"  horiz-adv-x="1024" />

    
    <glyph glyph-name="liuliangbiao" unicode="&#58923;" d="M534.7 682.7c40.3 0 79.3-7.9 116-23.4 35.5-15 67.4-36.5 94.8-63.9 27.4-27.4 48.9-59.3 63.9-94.8 15.5-36.7 23.4-75.7 23.4-116s-7.9-79.3-23.4-116c-15-35.5-36.5-67.4-63.9-94.8-27.5-27.3-59.4-48.8-94.8-63.8-36.7-15.5-75.7-23.4-116-23.4s-79.3 7.9-116 23.4c-35.5 15-67.4 36.5-94.8 63.9-27.4 27.4-48.9 59.3-63.9 94.8-15.5 36.7-23.4 75.7-23.4 116s7.9 79.3 23.4 116c15 35.5 36.5 67.4 63.9 94.8 27.4 27.4 59.3 48.9 94.8 63.9 36.7 15.5 75.7 23.3 116 23.3m0 85c-211.6 0-383.1-171.5-383.1-383.1s171.5-383.1 383.1-383.1S917.8 173 917.8 384.6 746.2 767.7 534.7 767.7zM276.1 792c-32 0-58.1-26.1-58.1-58.1v-103.7c0-32 26.1-58.1 58.1-58.1s58.1 26.1 58.1 58.1V733.9c0 32-26.1 58.1-58.1 58.1zM794.5 792c-32 0-58.1-26.1-58.1-58.1v-99.8c0-32 26.1-58.1 58.1-58.1s58.1 26.1 58.1 58.1v99.8c0 32-26.1 58.1-58.1 58.1zM535.3 702.1c-16.9 0-30.6-13.8-30.6-30.6V658c0-16.9 13.8-30.6 30.6-30.6S566 641.2 566 658v13.4c0 16.9-13.8 30.7-30.7 30.7zM534.7 139.3c-16.9 0-30.6-13.8-30.6-30.6v-13.4c0-16.9 13.8-30.6 30.6-30.6s30.6 13.8 30.6 30.6v13.4c0 16.8-13.8 30.6-30.6 30.6zM260.1 431.3h-13.4c-16.9 0-30.6-13.8-30.6-30.6 0-16.9 13.8-30.6 30.6-30.6h13.4c16.9 0 30.6 13.8 30.6 30.6 0.1 16.8-13.7 30.6-30.6 30.6zM822.9 430.7h-13.4c-16.9 0-30.6-13.8-30.6-30.6 0-16.9 13.8-30.6 30.6-30.6h13.4c16.9 0 30.6 13.8 30.6 30.6s-13.7 30.6-30.6 30.6zM533.2 447c-33.8 0-61.3-27.4-61.3-61.3s27.4-61.3 61.3-61.3 61.3 27.4 61.3 61.3S567 447 533.2 447zM531.2 572.1c-12.8 0-23.3-10.5-23.3-23.3v-120.7c0-12.8 10.5-23.3 23.3-23.3s23.3 10.5 23.3 23.3V548.8c0 12.8-10.5 23.3-23.3 23.3zM558.2 370.9c-7.1 0-14.1-3.2-18.7-9.3-7.7-10.3-5.6-24.9 4.7-32.6l96.6-72.3c4.2-3.1 9.1-4.6 13.9-4.6 7.1 0 14.1 3.2 18.7 9.3 7.7 10.3 5.6 24.9-4.7 32.6l-96.6 72.3c-4.1 3.1-9 4.6-13.9 4.6zM288.2 179.1c-31.6 0-57.5-25.9-57.5-57.5v-79.2c0-31.6 25.9-57.5 57.5-57.5s57.5 25.9 57.5 57.5v79.2c0 31.7-25.9 57.5-57.5 57.5zM778.3 174.7c-31.6 0-57.5-25.9-57.5-57.5V38c0-31.6 25.9-57.5 57.5-57.5s57.5 25.9 57.5 57.5v79.2c0 31.6-25.9 57.5-57.5 57.5z"  horiz-adv-x="1024" />

    
    <glyph glyph-name="wendu" unicode="&#59305;" d="M642.069334 172.859751c0.47627-69.987875-50.365551-129.045353-117.829195-136.856181-67.43983-7.810828-129.735945 38.125412-144.33362 106.493969-14.621489 68.344743 23.170535 137.046689 87.538424 159.193244V671.895444c0 15.478775 8.001336 29.766874 21.003506 37.482448a40.887778 40.887778 0 0 0 41.9832 0c12.978357-7.715574 20.955879-22.003673 20.955879-37.482448v-369.847459c54.104271-18.384022 90.657992-70.464145 90.681806-129.188234z m138.356431 0c0.714405-129.545437-85.13326-242.564305-207.272699-272.902703C451.037442-130.38135 324.706827-70.061756 268.102139 45.60041 211.521265 161.262577 239.573567 301.881291 335.827732 385.157098V712.759409C334.160787 810.728145 408.744667 892.075059 503.712902 895.837592c94.920608 3.786346 175.362609-71.440498 181.006409-169.218727h53.389866c7.929895 0 15.24064-4.35787 19.217494-11.430479a23.48011 23.48011 0 0 0 0-22.86096 22.0513 22.0513 0 0 0-19.217494-11.430479H686.07668v-25.623326h51.699108c7.929895 0 15.24064-4.35787 19.19368-11.430479a23.48011 23.48011 0 0 0 0-22.86096 22.0513 22.0513 0 0 0-19.19368-11.430479H686.07668v-25.623326h51.699108c7.929895 0 15.24064-4.35787 19.19368-11.43048a23.48011 23.48011 0 0 0 0-22.860959 22.0513 22.0513 0 0 0-19.19368-11.43048H686.07668v-24.90892h51.699108c7.929895 0 15.24064-4.35787 19.19368-11.43048a23.48011 23.48011 0 0 0 0-22.860959 22.0513 22.0513 0 0 0-19.19368-11.43048H686.07668v-82.418521c60.843491-52.794528 95.873148-130.640858 95.706454-212.654549l-1.357369 0.357202z m-50.365551 0c0.190508 70.416518-31.481446 136.879994-85.633344 179.744293l-9.739721 7.953709V712.759409c-3.452957 68.463811-58.271633 122.163252-124.758923 122.163252-66.463477 0-121.305966-53.699441-124.758924-122.163252v-352.535045l-9.715907-7.977522c-81.680303-65.05848-108.613371-179.887174-64.796532-276.236593 43.816839-96.373232 146.643529-148.453355 247.398445-125.259007 100.731102 23.146721 172.362108 115.328777 172.338295 221.77512l-0.333389 0.333389z"  horiz-adv-x="1024" />

    
    <glyph glyph-name="gongdanqueren" unicode="&#60470;" d="M832 864H192C139.072 864 96 820.928 96 768v-768c0-52.928 43.072-96 96-96h640c52.928 0 96 43.072 96 96V768c0 52.928-43.072 96-96 96zM320 800h384v-96H320V800z m544-800a32 32 0 0 0-32-32H192c-17.632 0-32 14.336-32 32V768c0 17.632 14.368 32 32 32h64v-96c0-35.296 28.704-64 64-64h384c35.296 0 64 28.704 64 64V800h64c17.664 0 32-14.368 32-32v-768zM719.072 528.96l-249.376-249.376-120.256 120.288a31.968 31.968 0 1 1-45.248-45.248l142.88-142.912a32 32 0 0 1 45.248 0l272 272a31.968 31.968 0 1 1-45.248 45.248z"  horiz-adv-x="1024" />

    
    <glyph glyph-name="tongzhi" unicode="&#58909;" d="M659.718 3.74H364.286c-17.448 0-31.603-14.14-31.603-31.587 0-17.446 14.156-31.586 31.603-31.586h295.432c17.447 0 31.603 14.139 31.603 31.586s-14.156 31.586-31.603 31.586zM870.281 160.732l-58.05 102.012c-16.684 40.295-71.605 33.411-65.107-5.143 0.527-1.356 0.927-2.764 1.646-4.03l71.295-125.453c0.72-1.234 1.509-2.417 2.263-3.342H200.785l73.147 128.76c2.57 4.474 3.908 9.58 3.908 14.808V451.022c0 87.852 68.279 178.943 159.387 212.071 22.52 7.284 39.35 10.507 49.495 11.93 11.551 1.593 33.489 2.021 48.811-0.035 14.91-2.04 32.494-6.324 53.3-13.128 88.95-33.728 156.03-124.356 156.03-210.837v-98.359c1.547-28.015 55.228-30.905 59.778 0v98.358c0 53.386-19.297 109.583-54.363 158.206-29.524 40.864-69.201 73.719-113.947 96.09-1.358 67.536-56.503 122.115-124.346 122.115-67.558 0-122.46-54.14-124.262-121.286-44.394-21.856-84.388-54.563-114.236-95.497-35.75-48.999-55.426-105.676-55.426-159.628v-174.795l-70.815-124.613c-10.215-17.824-10.147-39.983 0.17-57.807 10.284-17.773 29.479-28.81 50.113-28.81h628.878c31.945 0 57.962 25.964 57.962 57.876 0 14.019-5.005 27.421-14.088 37.859zM511.985 771.288c29.59 0 54.618-18.99 64.15-45.332-40.433 7.984-87.045 8.224-128.154 0.472 9.662 26.101 34.588 44.86 64.004 44.86z"  horiz-adv-x="1024" />

    
    <glyph glyph-name="Wi-Fi" unicode="&#60491;" d="M512 96m-96 0a96 96 0 1 1 192 0 96 96 0 1 1-192 0ZM748.096 394.56a324.608 324.608 0 0 1-230.272 95.36c-87.52 0-169.6-34.72-230.272-95.36a326.72 326.72 0 0 1-42.464-52.256 32 32 0 1 1 53.568-35.008 263.616 263.616 0 0 0 34.144 41.984 260.704 260.704 0 0 0 185.024 76.64c70.368 0 136.224-27.872 184.992-76.64 12.8-12.8 24.256-26.88 34.144-42.016a32 32 0 0 1 53.568 35.008 325.024 325.024 0 0 1-42.432 52.288zM991.776 511.424a569.824 569.824 0 0 1-73.792 90.816C812.544 707.68 669.92 768 517.824 768S223.072 707.68 117.664 602.24a568.416 568.416 0 0 1-73.792-90.816 32 32 0 0 1 53.568-35.008 505.76 505.76 0 0 0 65.472 80.608C256.448 650.528 382.88 704 517.824 704s261.344-53.472 354.912-147.008a502.944 502.944 0 0 0 65.472-80.608 32 32 0 1 1 53.568 35.04z"  horiz-adv-x="1024" />

    
    <glyph glyph-name="dianbiao" unicode="&#60493;" d="M864 832H160c-35.296 0-64-28.704-64-64v-768c0-35.296 28.704-64 64-64h704c35.296 0 64 28.704 64 64V768c0 35.296-28.704 64-64 64zM256 768h512v-224H256V768zM160 0V768h32v-288h640V768h32l0.064-768H160zM328 704h64v-96h-64zM488 704h64v-96h-64zM648 704h64v-96h-64zM605.152 416h-135.136L352 248.512l160-40.576-82.88-169.536L672 265.792l-160 24.16z"  horiz-adv-x="1024" />

    
    <glyph glyph-name="liujisuan" unicode="&#60502;" d="M832 160a128 128 0 0 1-125.28-101.824l-318.304 0.064c-8.352 5.568-13.44 43.616-16.448 69.76h92.384c14.592-19.328 37.568-32 63.648-32a80 80 0 1 1-78.4 96h-86.24c-11.616 63.136-38.336 128-122.144 128H96a32 32 0 1 1 0-64h145.248c32.32 0 47.136-19.776 56.704-64H96a32 32 0 0 1 0-64h211.552c6.72-60.064 15.584-133.824 82.24-133.824h318.176c0.8 0 1.44 0.384 2.208 0.448C726.272-57.696000000000026 774.4-96 832-96a128 128 0 0 1 0 256z m0-192a64 64 0 1 0 0.032 128.032A64 64 0 0 0 832-32zM96 384h384.512c1.344 0 2.496 0.608 3.776 0.768A127.744 127.744 0 0 1 608 288a128 128 0 0 1 0 256 127.744 127.744 0 0 1-123.712-96.768c-1.28 0.16-2.432 0.768-3.776 0.768H96a32 32 0 0 1 0-64z m512 96a64 64 0 1 0-0.032-128.032A64 64 0 0 0 608 480zM96 506.208h145.248c108.224 0 121.6 90.272 129.6 144.192 6.688 45.504 10.784 53.6 18.944 53.6h298.56c14.592-19.328 37.568-32 63.648-32a80 80 0 1 1-78.4 96h-283.808C323.52 768 313.888 702.88 307.52 659.7760000000001c-9.408-63.648-18.048-89.568-66.272-89.568H96a32 32 0 0 1 0-64z"  horiz-adv-x="1024" />

    
    <glyph glyph-name="shuibiao" unicode="&#60519;" d="M384 181.344C384 116.544 441.312 64 512 64s128 52.544 128 117.344c0 43.2-42.656 121.408-128 234.656-85.344-113.248-128-191.456-128-234.656zM864 832H160c-35.296 0-64-28.704-64-64v-768c0-35.296 28.704-64 64-64h704c35.296 0 64 28.704 64 64V768c0 35.296-28.704 64-64 64zM256 768h512v-224H256V768zM160 0V768h32v-288h640V768h32l0.064-768H160zM328 704h64v-96h-64zM488 704h64v-96h-64zM648 704h64v-96h-64z"  horiz-adv-x="1024" />

    
    <glyph glyph-name="wuxiandianbo" unicode="&#60537;" d="M480 480a32 32 0 0 0 64 0v-528a32 32 0 0 0-64 0V480z m-104.8 185.856a32 32 0 0 0 45.248-45.248A152.992 152.992 0 0 1 375.456 512c0-41.312 16.352-80 44.992-108.608a32 32 0 0 0-45.248-45.248A216.96 216.96 0 0 0 311.456 512a216.96 216.96 0 0 0 63.744 153.856zM287.712 753.344a32 32 0 0 0 45.248-45.248A276.32 276.32 0 0 1 251.744 512c0-74.56 29.536-144.416 81.216-196.096a32 32 0 1 0-45.248-45.248A340.288 340.288 0 0 0 187.744 512c0 91.744 36.384 177.792 99.968 241.344zM200.224 840.864A32 32 0 0 0 245.44 795.5840000000001 399.648 399.648 0 0 1 128 512c0-107.84 42.72-208.832 117.44-283.584a32 32 0 0 0-45.216-45.28A463.616 463.616 0 0 0 64 512C64 636.992 113.6 754.24 200.224 840.864z m448.576-175.008A216.96 216.96 0 0 0 712.544 512a216.96 216.96 0 0 0-63.744-153.856 32 32 0 0 0-45.248 45.248A152.992 152.992 0 0 1 648.544 512c0 41.312-16.352 80-44.992 108.608a32 32 0 1 0 45.248 45.248z m87.488 87.488A340.288 340.288 0 0 0 836.256 512c0-91.744-36.384-177.792-99.968-241.344a32 32 0 0 0-45.248 45.248A276.32 276.32 0 0 1 772.256 512c0 74.56-29.536 144.416-81.216 196.096a32 32 0 1 0 45.248 45.248z m87.488 87.52A463.616 463.616 0 0 0 960 512c0-124.992-49.6-242.24-136.224-328.864a32 32 0 0 0-45.248 45.28A399.648 399.648 0 0 1 896 512c0 107.84-42.72 208.832-117.44 283.584a32 32 0 0 0 45.216 45.28zM512 512m-64 0a64 64 0 1 1 128 0 64 64 0 1 1-128 0Z"  horiz-adv-x="1024" />

    
    <glyph glyph-name="wyalibiao" unicode="&#58990;" d="M568.04 189.44h-105.16c-23.172 0-23.2 35.052 0 35.052h105.16a17.524 17.524 0 1 0 0-35.048z m96.424 78.9H366.44c-23.16 0-23.188 35.06 0 35.06h298.024a17.536 17.536 0 0 0 0-35.06z m76.676 35.248a286.608 286.608 0 0 1 35.264 63.108l-53.092 17.252c-21.992 7.16-11.28 40.492 10.828 33.352l53.324-17.328a283.244 283.244 0 0 1 0.676 142.448l-53.096-17.256c-22.016-7.16-32.888 26.172-10.832 33.352l53.184 17.28c-17.54 44.816-46.48 84.964-83.12 115.616l-32.772-45.08c-13.608-18.744-41.996 1.848-28.36 20.608l32.888 45.256c-39.636 25.52-85.16 40.732-133.04 44.412v-55.492c0-23.164-35.052-23.192-35.052 0v56c-49.68-2.328-97.772-17.672-140.184-45.056l35.04-48.204c13.612-18.736-14.72-39.38-28.364-20.612l-34.92 48.068c-37.448-31.144-65.828-70.744-83.128-115.516l56.8-18.448c22.016-7.164 11.24-40.504-10.836-33.352l-56.56 18.38c-11.78-46.948-11.664-95.864 0.6-142.344l56.828 18.472c22.136 7.096 32.8-26.2 10.828-33.348l-56.624-18.412a286.656 286.656 0 0 1 34.092-61.48c13.612-18.732-14.724-39.368-28.36-20.608-50.216 69.108-70.508 153.624-57.14 237.992C240.624 804.216 604.392 889.376 770.58 660.6c82.34-113.34 81.848-265.172-1.224-377.812-13.744-18.652-41.984 2.144-28.216 20.8z m-269.064 166.6h0.088-0.088z m12.328-14.4L295.392 402.96l184.612 68.604L480 472a32 32 0 0 0 56.516 20.568l74.104 27.54 8.652-26.628L544 472.44l0.004-0.44a32 32 0 0 0-59.596-16.212z m76.1-487.408A39.856 39.856 0 0 0 564-48v-40c0-22.092-17.908-40-40-40h-16c-22.092 0-40 17.908-40 40v40c0 5.84 1.252 11.38 3.496 16.38A39.932 39.932 0 0 0 456 0v80c0 22.092 17.908 40 40 40h40c22.092 0 40-17.908 40-40v-80a39.932 39.932 0 0 0-15.496-31.62zM499.44 614.968l0.036-0.148-0.036 0.148zM1026 538v-120c0-22.092-17.908-40-40-40h-68c-22.092 0-40 17.908-40 40v120c0 22.092 17.908 40 40 40h68c22.092 0 40-17.908 40-40z m-34-2a8 8 0 0 1-8 8h-68a8 8 0 0 1-8-8v-120a8 8 0 0 1 8-8h68a8 8 0 0 1 8 8V536zM508-40a8 8 0 0 1-8-8v-40a8 8 0 0 1 8-8h16a8 8 0 0 1 8 8v40a8 8 0 0 1-8 8h-16zM452.432 569.552h12.72V578.48h4.992v-8.928h13.2v-4.896h-13.2v-15.12h15.888v-4.896h-36.192v4.896h15.312v15.12h-12.72v4.896z m24.24-6.624c2.592-3.696 4.656-6.912 6.096-9.696l-4.032-2.832c-1.488 3.072-3.504 6.432-6 10.08l3.936 2.448z m8.16 22.896v-4.8h-34.464v-10.896c-0.192-11.376-1.872-20.496-5.088-27.312l-3.84 3.408c2.496 5.712 3.84 13.68 3.936 23.904v15.696h39.456z m34.416 1.488h5.088v-5.232c-0.048-1.344-0.096-2.688-0.192-3.936h18.24c-0.192-8.544-0.48-15.408-0.96-20.64-0.48-5.184-1.344-8.832-2.496-10.944-1.152-1.968-2.976-3.024-5.52-3.216h-6.816l-1.344 4.848c2.016-0.096 3.888-0.192 5.712-0.192 2.448 0 4.032 1.584 4.8 4.656 0.768 3.216 1.296 10.08 1.536 20.592h-13.584c-0.768-6.624-2.208-12.192-4.272-16.656-2.88-5.904-7.536-10.464-13.968-13.632l-2.688 4.272c6.336 3.456 10.608 7.776 12.816 13.008 1.44 3.648 2.448 8.016 3.024 13.008h-13.248v4.896h13.68c0.096 1.296 0.144 2.592 0.192 3.936v5.232z m45.456-3.552h16.752v3.552h5.088v-3.552h16.752v-4.608h-16.752v-3.12h13.968v-4.608h-13.968v-3.12h18.432v-4.56h-16.752a32.056 32.056 0 0 1 4.032-6.672c2.4 1.248 4.704 3.12 6.864 5.52l3.456-3.36a28.1 28.1 0 0 0-7.44-5.28 29.888 29.888 0 0 1 10.416-6.384l-2.736-4.416c-8.688 3.6-15.072 10.464-19.152 20.592h-1.008a32.24 32.24 0 0 0-5.904-6.144v-8.544c3.216 1.008 6.432 2.16 9.6 3.408l1.008-4.608a126.516 126.516 0 0 0-15.888-4.944l-1.632 4.272c1.344 0.576 2.016 1.392 2.016 2.496v4.56c-2.304-1.344-4.8-2.544-7.488-3.696l-2.688 4.368c7.008 2.352 12.192 5.28 15.6 8.832h-14.256v4.56h18.432v3.12h-13.968v4.608h13.968v3.12h-16.752V583.76zM496 88a8 8 0 0 1-8-8v-80a8 8 0 0 1 8-8h40a8 8 0 0 1 8 8v80a8 8 0 0 1-8 8h-40z m16 32c196.612 0 356 159.388 356 356s-159.388 356-356 356-356-159.388-356-356 159.388-356 356-356z m0-64c-231.96 0-420 188.04-420 420S280.04 896 512 896s420-188.04 420-420-188.04-420-420-420z"  horiz-adv-x="1026" />

    
    <glyph glyph-name="baojing1" unicode="&#60313;" d="M839.194853-127.949226H184.525889l33.003186 102.005231h588.662592l33.003186-101.96715zM233.561007-44.768504l-20.830088-64.241971h107.577693q15.714594 15.930384 31.429187 31.911542l0.190403 0.21579c9.685166 9.850182 19.68767 19.992314 29.601319 30.032899l2.056352 2.08174H233.561007z m541.201473 45.392074H249.186746V325.387611A262.908455 262.908455 0 0 0 510.051543 589.705049v-0.152322h3.884221a262.908455 262.908455 0 0 0 260.864796-264.304744v-324.61172zM511.917492 529.156897a22.645263 22.645263 0 0 1 0-45.277833h3.655738a165.447509 165.447509 0 0 0 164.076607-166.132959 22.848359 22.848359 0 0 1 11.183003-19.598815 22.353312 22.353312 0 0 1 33.510927 19.598815A210.484164 210.484164 0 0 1 515.585923 529.156897zM855.544124 379.906336a42.269465 42.269465 0 0 0-32.939718 15.689206 43.741915 43.741915 0 0 0-6.524476 43.754609 42.497948 42.497948 0 0 0 34.894522 26.580258l124.015817 19.205315a51.116857 51.116857 0 0 0 6.422928 0.482354 42.967609 42.967609 0 0 0 42.028288-36.595455 43.957705 43.957705 0 0 0-7.781136-32.178106 42.282158 42.282158 0 0 0-27.925773-17.047415l-124.015817-19.0403a41.444385 41.444385 0 0 0-8.174635-0.850466z m-690.058534 16.78085a40.505064 40.505064 0 0 0-8.200023 0.82508L34.272539 422.531219a43.246867 43.246867 0 0 0-21.071265 73.381315 42.117142 42.117142 0 0 0 29.322062 11.931921 43.04377 43.04377 0 0 0 8.339651-0.850467l123.000334-25.069728a41.647482 41.647482 0 0 0 26.986452-18.304074 43.158012 43.158012 0 0 0-35.364183-66.958387zM742.013165 593.893915a41.990207 41.990207 0 0 0-27.925773 10.789503 41.203208 41.203208 0 0 0-13.848644 26.021742 42.764513 42.764513 0 0 0 10.040584 34.843749l82.863383 95.531529a42.002901 42.002901 0 0 0 30.870673 13.391677 42.447174 42.447174 0 0 0 28.128869-10.713342 43.589592 43.589592 0 0 0 4.747381-59.659605l-82.837996-95.56961a42.7899 42.7899 0 0 0-29.195126-14.496014 25.272824 25.272824 0 0 0-2.843351-0.139629z m-451.483582 10.738729a42.053675 42.053675 0 0 0-33.180895 16.196948l-78.471421 99.339589a43.551512 43.551512 0 0 0 6.664105 60.560846 42.129836 42.129836 0 0 0 59.761153-6.740266l78.382566-99.326896a43.43727 43.43727 0 0 0-6.664105-60.535459 41.431692 41.431692 0 0 0-26.491403-9.456682z m227.747369 78.052534h-0.952015a41.507853 41.507853 0 0 0-29.89327 13.36629 43.158012 43.158012 0 0 0-11.665357 30.769124l-0.241177 127.074959A43.018383 43.018383 0 0 0 518.035775 896h0.926628a43.158012 43.158012 0 0 0 41.57132-44.135414l0.368113-127.074959a42.675658 42.675658 0 0 0-42.624884-42.104449z"  horiz-adv-x="1024" />

    
    <glyph glyph-name="liuliangji" unicode="&#59063;" d="M959.7 478.8c-21.6 0-39.1-17.5-39.1-39.1V224H696.3l-54.2 80.3c36.7 15 70.4 37.2 99.3 66.1 56.9 56.9 88.2 132.6 88.2 213s-31.3 156.1-88.2 213c-56.9 56.9-132.6 88.2-213 88.2s-156.1-31.3-213-88.2c-56.9-56.9-88.2-132.6-88.2-213s31.3-156.1 88.2-213c29-29 62.9-51.3 99.8-66.3L354.4 224H131.5V439.7c0 21.6-17.5 39.1-39.1 39.1s-39.1-17.5-39.1-39.1v-515.9c0-21.6 17.5-39.1 39.1-39.1s39.1 17.5 39.1 39.1v54.1c84.6 0.3 206.2-2.6 239.2-12.1 10.5-3 24.2-8.9 38.8-15.2 35-15 78.6-33.7 124-33.7 49.3 0 90.3 19.3 123.3 34.9 12.5 5.9 24.2 11.4 33.5 14.4 32.8 10.4 148 12.9 230.4 12.1v-54.4c0-21.6 17.5-39.1 39.1-39.1s39.1 17.5 39.1 39.1V439.7c-0.2 21.6-17.7 39.1-39.2 39.1zM305.3 583.5c0 59.6 23.2 115.6 65.4 157.8 42.1 42.1 98.2 65.4 157.8 65.4s115.6-23.2 157.8-65.4c42.1-42.1 65.4-98.2 65.4-157.8s-23.2-115.6-65.4-157.8c-42.1-42.1-98.2-65.4-157.8-65.4s-115.6 23.2-157.8 65.4c-42.2 42.1-65.4 98.2-65.4 157.8zM835.8 56c-128.1-2.3-159.1-12.1-169.2-15.4-14.2-4.5-28.2-11.1-43.1-18.2-28.6-13.4-58.1-27.4-90-27.4-29.4 0-63.3 14.6-93.2 27.4-16.9 7.2-32.8 14.1-48 18.5-9.8 2.8-39.8 11.5-169.4 14.3-35.6 0.8-69.1 0.9-91.5 0.8v89.9h242.3c12.2 0 23.7 5.7 31.1 15.5l90.8 119.7c8.5 0.6 19.1 1.1 28.9 1.1 16.5 0 29.5-0.5 38.9-1l79.7-118a39.02 39.02 0 0 1 32.4-17.2h245v-89.6c-21.5 0.1-52 0.1-84.7-0.4z"  horiz-adv-x="1024" />

    
    <glyph glyph-name="qudongmada" unicode="&#58881;" d="M992 488c-6.4 6.4-12.8 12.8-17.6 19.2-9.6 11.2-8 35.2 1.6 46.4 6.4 6.4 14.4 12.8 22.4 19.2 1.6 1.6 4.8 4.8 8 6.4 17.6 14.4 22.4 28.8 16 49.6-1.6 6.4-3.2 12.8-6.4 20.8-8 20.8-20.8 30.4-44.8 30.4h-6.4c-12.8 0-25.6 1.6-36.8 3.2-11.2 1.6-25.6 19.2-25.6 30.4s1.6 20.8 1.6 32c0 4.8 1.6 8 1.6 12.8 1.6 17.6-6.4 33.6-22.4 41.6-8 4.8-14.4 8-24 11.2-17.6 8-35.2 4.8-49.6-8-3.2-3.2-6.4-4.8-8-8-6.4-6.4-12.8-11.2-19.2-17.6-3.2-3.2-12.8-6.4-25.6-4.8-12.8 0-20.8 3.2-24 8-6.4 8-11.2 14.4-17.6 20.8-3.2 3.2-6.4 8-9.6 11.2-12.8 14.4-28.8 19.2-46.4 14.4-6.4-3.2-16-4.8-24-8-19.2-6.4-28.8-20.8-30.4-40v-9.6c0-11.2-1.6-20.8-1.6-30.4-1.6-11.2-20.8-28.8-30.4-28.8-9.6 0-20.8 1.6-33.6 1.6-3.2 0-8 1.6-11.2 1.6-19.2 1.6-33.6-4.8-43.2-22.4l-11.2-22.4c-8-17.6-6.4-33.6 8-48l8-8c6.4-6.4 12.8-12.8 17.6-19.2 9.6-11.2 8-36.8-1.6-46.4-6.4-8-14.4-14.4-24-20.8-1.6-1.6-4.8-3.2-6.4-4.8-17.6-14.4-22.4-28.8-16-48 1.6-6.4 4.8-14.4 8-22.4 6.4-20.8 19.2-28.8 41.6-30.4H529.6c-9.6-14.4-20.8-27.2-33.6-40l-3.2-3.2c-14.4-11.2-25.6-24-33.6-40-12.8-22.4-19.2-48-19.2-75.2-19.2 11.2-41.6 20.8-62.4 27.2 6.4 8 12.8 14.4 20.8 20.8 3.2 3.2 27.2 27.2 36.8 46.4 19.2 35.2 20.8 76.8 8 115.2-12.8 36.8-41.6 68.8-78.4 86.4-35.2 17.6-78.4 19.2-116.8 4.8-38.4-19.2-70.4-46.4-88-83.2-8-16-12.8-33.6-12.8-49.6l-1.6-4.8c-9.6-67.2-41.6-128-89.6-176l-3.2-3.2c-14.4-11.2-25.6-24-33.6-40C0 171.2-4.8 128 6.4 89.6c11.2-38.4 38.4-70.4 73.6-89.6 22.4-11.2 46.4-16 70.4-16 14.4 0 30.4 1.6 46.4 8 38.4 11.2 70.4 38.4 89.6 73.6 9.6 17.6 14.4 36.8 16 56v1.6c4.8 35.2 16 67.2 32 99.2 6.4 11.2 12.8 20.8 19.2 32 35.2-9.6 68.8-25.6 97.6-49.6 12.8-32 38.4-59.2 68.8-75.2 20.8-11.2 46.4-17.6 70.4-17.6 16 0 32 1.6 46.4 8 36.8 11.2 68.8 36.8 88 70.4 1.6 1.6 1.6 3.2 3.2 4.8 9.6 17.6 14.4 35.2 16 56v1.6c3.2 17.6 6.4 35.2 12.8 52.8l4.8-4.8c3.2-3.2 8-8 11.2-12.8 9.6-11.2 20.8-17.6 33.6-17.6 4.8 0 9.6 0 14.4 3.2l8 3.2 1.6 1.6h1.6l1.6 1.6c1.6 0 3.2 1.6 3.2 1.6 27.2 9.6 35.2 20.8 36.8 48V336c1.6 9.6 1.6 17.6 1.6 27.2 1.6 14.4 19.2 30.4 32 30.4 9.6 0 19.2-1.6 30.4-1.6 3.2 0 8-1.6 12.8-1.6 19.2-1.6 33.6 4.8 43.2 22.4 3.2 4.8 6.4 11.2 9.6 17.6l1.6 3.2c9.6 19.2 8 35.2-8 51.2l-4.8 3.2zM302.4 238.4c-17.6-35.2-30.4-72-35.2-110.4v-3.2c0-12.8-3.2-24-8-35.2-3.2-3.2-6.4-6.4-6.4-9.6v-3.2c-14.4-25.6-36.8-43.2-64-51.2-30.4-9.6-62.4-6.4-89.6 8-27.2 14.4-46.4 38.4-56 67.2-9.6 27.2-8 59.2 8 86.4 6.4 11.2 16 22.4 25.6 30.4l1.6 1.6 4.8 4.8c52.8 54.4 88 121.6 100.8 195.2l1.6 6.4v1.6c1.6 12.8 4.8 27.2 9.6 38.4 12.8 27.2 36.8 48 65.6 59.2 12.8 4.8 27.2 8 40 8 17.6 0 33.6-3.2 48-11.2 28.8-12.8 48-36.8 59.2-65.6 9.6-28.8 8-59.2-6.4-86.4-4.8-9.6-20.8-27.2-30.4-36.8-28.8-28.8-51.2-60.8-68.8-94.4z m440 126.4c-17.6-35.2-30.4-72-35.2-110.4v-3.2c0-12.8-3.2-24-8-35.2-3.2-3.2-6.4-6.4-6.4-9.6v-3.2c-14.4-25.6-36.8-43.2-64-51.2-30.4-9.6-62.4-6.4-89.6 8-27.2 14.4-46.4 38.4-56 67.2-8 28.8-6.4 60.8 9.6 86.4 6.4 11.2 16 22.4 25.6 30.4l1.6 1.6 4.8 4.8c52.8 54.4 88 121.6 100.8 195.2l1.6 6.4v1.6c1.6 12.8 4.8 27.2 9.6 38.4 12.8 27.2 36.8 48 65.6 59.2 12.8 4.8 27.2 8 40 8 17.6 0 33.6-3.2 48-11.2 28.8-12.8 48-36.8 59.2-65.6 9.6-28.8 8-59.2-6.4-86.4-4.8-9.6-20.8-27.2-30.4-36.8-28.8-28.8-51.2-59.2-70.4-94.4z m228.8 80l-1.6-3.2c-3.2-6.4-6.4-11.2-8-17.6-1.6-3.2-3.2-3.2-8-3.2-3.2 0-8 1.6-11.2 1.6-11.2 1.6-24 1.6-35.2 1.6-32-1.6-64-30.4-68.8-60.8-1.6-9.6-1.6-20.8-1.6-30.4v-6.4c0-9.6-1.6-11.2-1.6-11.2s-1.6-1.6-9.6-4.8c-1.6 0-1.6-1.6-3.2-1.6h-1.6c-1.6 0-3.2-1.6-3.2-1.6-1.6 0-4.8-1.6-6.4-1.6-6.4-1.6-8-1.6-11.2 3.2-4.8 4.8-8 9.6-12.8 14.4-6.4 4.8-9.6 11.2-14.4 17.6l-1.6 1.6c1.6 3.2 1.6 4.8 3.2 8 17.6 30.4 36.8 59.2 62.4 84.8 3.2 3.2 27.2 27.2 36.8 46.4 19.2 35.2 20.8 76.8 8 115.2-12.8 36.8-41.6 68.8-78.4 86.4-35.2 17.6-78.4 19.2-116.8 4.8-38.4-14.4-70.4-41.6-86.4-78.4-8-16-12.8-33.6-12.8-49.6l-1.6-4.8c-4.8-36.8-17.6-70.4-35.2-100.8-11.2 1.6-20.8 1.6-32 1.6h-9.6c-6.4 0-6.4 1.6-6.4 1.6s-1.6 1.6-3.2 4.8c-3.2 8-4.8 14.4-6.4 20.8-1.6 4.8-1.6 4.8 3.2 9.6 1.6 1.6 4.8 3.2 6.4 4.8 9.6 8 19.2 14.4 27.2 24 24 24 25.6 68.8 3.2 94.4-6.4 8-12.8 14.4-19.2 20.8-1.6 3.2-4.8 4.8-8 8s-3.2 3.2-1.6 8l11.2 22.4c1.6 3.2 3.2 3.2 8 3.2 3.2 0 6.4-1.6 9.6-1.6 12.8-1.6 25.6-1.6 38.4-1.6 28.8 1.6 62.4 30.4 67.2 59.2 1.6 11.2 1.6 22.4 1.6 33.6v6.4c0 6.4 1.6 6.4 6.4 8 8 3.2 17.6 4.8 24 8 3.2 1.6 3.2 1.6 6.4-1.6 3.2-4.8 8-9.6 11.2-12.8 6.4-6.4 11.2-11.2 16-17.6 9.6-12.8 28.8-20.8 51.2-22.4 22.4-1.6 43.2 4.8 54.4 17.6 4.8 4.8 9.6 9.6 17.6 16 3.2 1.6 6.4 4.8 8 8 3.2 3.2 3.2 3.2 8 1.6l22.4-11.2c3.2-1.6 3.2-1.6 3.2-6.4 0-3.2-1.6-8-1.6-11.2-1.6-11.2-1.6-24-1.6-35.2 0-27.2 28.8-60.8 56-65.6 14.4-3.2 28.8-3.2 41.6-3.2h6.4c8-1.6 8-1.6 9.6-8 3.2-6.4 4.8-12.8 6.4-17.6 1.6-3.2 1.6-4.8 1.6-4.8l-4.8-4.8c-3.2-3.2-4.8-4.8-8-6.4-8-8-17.6-14.4-25.6-22.4-24-22.4-25.6-67.2-4.8-92.8 6.4-8 12.8-14.4 19.2-22.4 1.6-3.2 4.8-4.8 6.4-8 4.8-9.6 4.8-9.6 1.6-14.4zM185.6 203.2c-19.2 9.6-41.6 11.2-64 4.8-20.8-8-38.4-22.4-48-41.6-9.6-19.2-11.2-41.6-4.8-62.4 8-20.8 22.4-36.8 41.6-48 12.8-6.4 24-8 38.4-8 9.6 0 17.6 1.6 25.6 4.8 20.8 8 38.4 22.4 48 41.6 20.8 38.4 4.8 88-36.8 108.8z m4.8-96c-11.2-22.4-40-30.4-62.4-20.8-11.2 4.8-19.2 14.4-24 27.2-3.2 11.2-3.2 24 3.2 35.2 4.8 11.2 14.4 19.2 27.2 22.4 4.8 1.6 9.6 3.2 14.4 3.2 6.4 0 14.4-1.6 20.8-4.8 22.4-11.2 32-38.4 20.8-62.4z m142.4 380.8c-19.2 9.6-41.6 11.2-64 4.8-20.8-8-38.4-22.4-48-41.6-20.8-40-3.2-89.6 36.8-110.4 12.8-6.4 24-9.6 36.8-9.6 9.6 0 17.6 1.6 25.6 4.8 20.8 8 38.4 22.4 48 41.6 9.6 19.2 11.2 41.6 4.8 62.4-4.8 20.8-20.8 38.4-40 48z m3.2-94.4c-6.4-11.2-14.4-19.2-27.2-22.4-12.8-3.2-24-3.2-35.2 3.2-22.4 11.2-32 38.4-20.8 60.8 8 16 25.6 24 41.6 24 8 0 14.4-1.6 20.8-4.8 11.2-4.8 19.2-14.4 24-27.2 3.2-11.2 3.2-22.4-3.2-33.6z m480 174.4c-8 20.8-22.4 36.8-41.6 48-41.6 20.8-91.2 3.2-112-36.8-9.6-19.2-11.2-41.6-4.8-62.4 8-20.8 22.4-36.8 41.6-48 12.8-6.4 24-9.6 36.8-9.6 8 0 17.6 1.6 25.6 4.8 20.8 8 38.4 22.4 48 41.6 12.8 19.2 12.8 41.6 6.4 62.4z m-38.4-48c-6.4-11.2-14.4-19.2-27.2-22.4-12.8-3.2-24-3.2-35.2 3.2-11.2 4.8-19.2 14.4-24 27.2-3.2 11.2-3.2 24 3.2 35.2 8 16 25.6 24 41.6 24 8 0 14.4-1.6 20.8-4.8 11.2-4.8 19.2-14.4 24-27.2 3.2-11.2 3.2-24-3.2-35.2z m-150.4-190.4c-19.2 9.6-41.6 11.2-64 4.8-20.8-8-38.4-22.4-48-41.6-20.8-40-3.2-89.6 36.8-110.4 12.8-6.4 24-9.6 36.8-9.6 8 0 17.6 1.6 25.6 4.8 20.8 8 38.4 22.4 48 41.6 9.6 19.2 11.2 41.6 4.8 62.4-6.4 22.4-20.8 38.4-40 48z m3.2-94.4c-6.4-11.2-14.4-19.2-27.2-22.4-12.8-3.2-24-3.2-35.2 3.2-22.4 11.2-32 38.4-20.8 60.8 6.4 11.2 14.4 19.2 27.2 22.4 4.8 1.6 9.6 3.2 14.4 3.2 8 0 14.4-1.6 20.8-4.8 11.2-4.8 19.2-14.4 24-27.2 3.2-12.8 3.2-24-3.2-35.2z"  horiz-adv-x="1025" />

    
    <glyph glyph-name="hekriconshebeizhuijiawenkongqi-copy" unicode="&#58880;" d="M834.80501 752.919281l-645.608997 0c-25.362644 0-46.115294-20.751626-46.115294-46.114271l0-645.608997c0-25.363667 20.751626-46.114271 46.115294-46.114271l645.608997 0c25.362644 0 46.114271 20.751626 46.114271 46.114271l0 645.608997C880.919281 732.167654 860.167654 752.919281 834.80501 752.919281zM568.008618 108.629325c-18.314111 0-33.161261 14.846126-33.161261 33.160237 0 18.314111 14.846126 33.160237 33.161261 33.160237 18.314111 0 33.160237-14.846126 33.160237-33.160237C601.169879 123.47545200000002 586.322729 108.629325 568.008618 108.629325zM685.60185 108.629325c-18.314111 0-33.161261 14.846126-33.161261 33.160237 0 18.314111 14.846126 33.160237 33.161261 33.160237 18.314111 0 33.160237-14.846126 33.160237-33.160237C718.762087 123.47545200000002 703.915961 108.629325 685.60185 108.629325zM803.195082 108.629325c-18.314111 0-33.160237 14.846126-33.160237 33.160237 0 18.314111 14.846126 33.160237 33.160237 33.160237 18.314111 0 33.161261-14.846126 33.161261-33.160237C836.355319 123.47545200000002 821.509193 108.629325 803.195082 108.629325zM836.402391 241.151571c0-16.545838-13.537318-30.082132-30.082132-30.082132l-588.639494 0c-16.545838 0-30.082132 13.537318-30.082132 30.082132l0 436.467723c0 16.544815 13.537318 30.082132 30.082132 30.082132l588.639494 0c16.544815 0 30.082132-13.537318 30.082132-30.082132L836.402391 241.151571zM561.109488 423.60502l0 194.388269c0 27.010167-22.099321 49.109488-49.109488 49.109488l0 0c-27.010167 0-49.109488-22.099321-49.109488-49.109488l0-194.388269c-30.150694-17.120936-50.492998-49.517787-50.492998-86.668918 0-55.008848 44.593638-99.602486 99.603509-99.602486 55.009871 0 99.603509 44.593638 99.603509 99.602486C611.603509 374.088256 591.261205 406.48306 561.109488 423.60502zM512 269.63529900000003c-37.693484 0-68.25043 30.555923-68.25043 68.25043 0 27.005051 15.687284 50.341548 38.443567 61.408605l0 206.370161c0 11.160177 9.130961 20.291139 20.290115 20.291139s20.290115-9.130961 20.290115-20.291139l0-21.673625-5.994528 0c-6.340405 0-11.528568-5.188162-11.528568-11.528568l0 0c0-6.341429 5.188162-11.529591 11.528568-11.529591l5.994528 0 0-23.980157-5.994528 0c-6.340405 0-11.528568-5.187139-11.528568-11.528568l0 0c0-6.340405 5.188162-11.528568 11.528568-11.528568l5.994528 0 0-23.980157-5.994528 0c-6.340405 0-11.528568-5.188162-11.528568-11.528568l0 0c0-6.340405 5.188162-11.528568 11.528568-11.528568l5.994528 0 0-23.980157-5.994528 0c-6.340405 0-11.528568-5.188162-11.528568-11.528568l0 0c0-6.340405 5.188162-11.528568 11.528568-11.528568l5.994528 0 0-14.540158c32.57286-5.167696 57.476039-33.368992 57.476039-67.39597C580.25043 300.19122200000004 549.693484 269.63529900000003 512 269.63529900000003z"  horiz-adv-x="1024" />

    
    <glyph glyph-name="daily" unicode="&#58905;" d="M803.84 10.240000000000009H222.208c-48.128 0-87.552 39.424-87.552 87.552v517.12c0 48.128 39.424 87.552 87.552 87.552H803.84c48.128 0 87.552-39.424 87.552-87.552v-517.12c0-48.64-39.424-87.552-87.552-87.552z m-581.632 640c-19.456 0-35.328-15.872-35.328-35.328v-517.12c0-19.456 15.872-35.328 35.328-35.328H803.84c19.456 0 35.328 15.872 35.328 35.328v517.12c0 19.456-15.872 35.328-35.328 35.328H222.208zM353.28 581.12c-14.336 0-26.112 11.776-26.112 26.112V750.08c0 14.336 11.776 26.112 26.112 26.112s26.112-11.776 26.112-26.112v-142.848c0-14.336-11.776-26.112-26.112-26.112z m319.488 0c-14.336 0-26.112 11.776-26.112 26.112V750.08c0 14.336 11.776 26.112 26.112 26.112s26.112-11.776 26.112-26.112v-142.848c0-14.336-11.776-26.112-26.112-26.112z m61.952-221.184H514.048c-14.336 0-26.112 11.776-26.112 26.112s11.776 26.112 26.112 26.112H734.72c14.336 0 26.112-11.776 26.112-26.112s-11.776-26.112-26.112-26.112z m0-157.184H342.528c-14.336 0-26.112 11.776-26.112 26.112s11.776 26.112 26.112 26.112H734.72c14.336 0 26.112-11.776 26.112-26.112s-11.776-26.112-26.112-26.112z"  horiz-adv-x="1024" />

    


  </font>
</defs>
</svg>
